# Blender v2.79 (sub 0) OBJ File: ''
# www.blender.org
mtllib crate.mtl
o Cube_Cube.001
v -1.000000 1.000000 1.000000
v -1.000000 1.000000 -1.000000
v -1.000000 -1.000000 -1.000000
v -1.000000 -1.000000 1.000000
v 1.000000 1.000000 -1.000000
v 1.000000 -1.000000 -1.000000
v 1.000000 1.000000 1.000000
v 1.000000 -1.000000 1.000000
vt 1.000000 0.000000
vt 0.000000 1.000000
vt 0.000000 0.000000
vt 1.000000 0.000000
vt 0.000000 1.000000
vt 0.000000 0.000000
vt 1.000000 0.000000
vt 0.000000 1.000000
vt 0.000000 0.000000
vt 1.000000 0.000000
vt 0.000000 1.000000
vt 0.000000 0.000000
vt 1.000000 0.000000
vt 0.000000 0.000000
vt 0.000000 1.000000
vt 1.000000 1.000000
vt 1.000000 1.000000
vt 1.000000 1.000000
vt 1.000000 1.000000
vt 1.000000 1.000000
vn -1.0000 -0.0000 0.0000
vn 0.0000 0.0000 -1.0000
vn 1.0000 -0.0000 0.0000
vn 0.0000 -0.0000 1.0000
vn 0.0000 -1.0000 0.0000
vn 0.0000 1.0000 0.0000
usemtl Material.001
s off
f 2/1/1 4/2/1 1/3/1
f 5/4/2 3/5/2 2/6/2
f 7/7/3 6/8/3 5/9/3
f 1/10/4 8/11/4 7/12/4
f 3/13/5 8/11/5 4/14/5
f 5/4/6 1/15/6 7/12/6
f 2/1/1 3/16/1 4/2/1
f 5/4/2 6/17/2 3/5/2
f 7/7/3 8/18/3 6/8/3
f 1/10/4 4/19/4 8/11/4
f 3/13/5 6/17/5 8/11/5
f 5/4/6 2/20/6 1/15/6
